# xmcd
# 
# Track frame offsets:
#     150
#     20917
#     38010
#     62669
#     84707
#     101384
#     120284
#     141744
#     161966
#     172611
#     191692
# 
# Disc length: 2772
# 
# Revision: 0
# Processed by: cddbd v1.5.2PL0 Copyright (c) Steve Scherf et al.
# Submitted via: fre:ac v1.0.31
# 
DISCID=910ad20b
DTITLE=Kaunan - Forn
DYEAR=2017
DGENRE=Folk
TTITLE0=Halteguten
TTITLE1=Polska Svit
TTITLE2=Elve Fert
TTITLE3=Vandringen
TTITLE4=Svaerdsjoe Polska
TTITLE5=Vallat
TTITLE6=Noaks Pennkniv
TTITLE7=Byss-Kalles Vals
TTITLE8=Den Gamle Sordolen
TTITLE9=Polska fran Aelvdal
TTITLE10=Dansen Ungdom
EXTD=
EXTT0=
EXTT1=
EXTT2=
EXTT3=
EXTT4=
EXTT5=
EXTT6=
EXTT7=
EXTT8=
EXTT9=
EXTT10=
PLAYORDER=
